<svg id="Logotipo" xmlns="http://www.w3.org/2000/svg" xmlns:xlink="http://www.w3.org/1999/xlink" width="198.81" height="43.32" viewBox="0 0 198.81 43.32">
  <defs>
    <linearGradient id="linear-gradient" x1="0.995" y1="0.775" x2="-0.181" y2="0.312" gradientUnits="objectBoundingBox">
      <stop offset="0.081" stop-color="#91b508"/>
      <stop offset="0.892" stop-color="#008e2b"/>
    </linearGradient>
    <linearGradient id="linear-gradient-2" x1="-0.167" y1="0.531" x2="1.152" y2="0.47" gradientUnits="objectBoundingBox">
      <stop offset="0.031" stop-color="#91b508"/>
      <stop offset="0.994" stop-color="#008e2b"/>
    </linearGradient>
  </defs>
  <g id="Grupo_1331" data-name="Grupo 1331" transform="translate(-224.025 -254.73)">
    <g id="Grupo_1324" data-name="Grupo 1324" transform="translate(265.987 263.445)">
      <path id="Caminho_275" data-name="Caminho 275" d="M310.552,289.754v8.123h-3.4V272.788h8.523q5.321,0,7.622,1.92t2.3,6.282q0,4.442-2.4,6.6t-7.4,2.161Zm11.6-8.764a4.72,4.72,0,0,0-1.5-3.941q-1.5-1.18-4.982-1.181h-5.122v10.884h5.122q3.481,0,4.982-1.36T322.156,280.991Z" transform="translate(-307.151 -272.388)" fill="#fff"/>
      <path id="Caminho_276" data-name="Caminho 276" d="M371.074,284.879q0,6.843-2.621,9.884T359.91,297.8q-6.362,0-8.783-2.821t-2.421-10.1q0-6.8,2.641-9.844T359.91,272q6.362,0,8.763,2.821T371.074,284.879Zm-17.726,7.242a4.177,4.177,0,0,0,2.241,1.921,12.813,12.813,0,0,0,4.321.56q4.442,0,6.082-2.141t1.64-7.583a29.082,29.082,0,0,0-.28-4.461,8.706,8.706,0,0,0-.88-2.821,4.287,4.287,0,0,0-2.221-1.941,12.4,12.4,0,0,0-4.342-.58q-4.482,0-6.122,2.161t-1.641,7.643a29.02,29.02,0,0,0,.28,4.462A7.632,7.632,0,0,0,353.348,292.122Z" transform="translate(-327.729 -271.995)" fill="#fff"/>
      <path id="Caminho_277" data-name="Caminho 277" d="M403.829,289.754v8.123h-3.4V272.788h8.523q5.321,0,7.622,1.92t2.3,6.282q0,4.442-2.4,6.6t-7.4,2.161Zm11.6-8.764a4.722,4.722,0,0,0-1.5-3.941q-1.5-1.18-4.982-1.181h-5.122v10.884h5.122q3.481,0,4.982-1.36T415.433,280.991Z" transform="translate(-353.342 -272.388)" fill="#fff"/>
      <path id="Caminho_278" data-name="Caminho 278" d="M496.673,288.161h-4.321v-5h10.123v13.2a18.016,18.016,0,0,1-4,1.02,30.859,30.859,0,0,1-5.242.5q-6.522,0-9.063-3t-2.541-9.963q0-6.722,2.962-9.824t9.443-3.1q2.361,0,4.222.1a21.493,21.493,0,0,1,2.861.3v5.442q-1.32-.12-3.141-.18t-3.942-.06a10.6,10.6,0,0,0-3.381.4,3.022,3.022,0,0,0-1.661,1.4,5.571,5.571,0,0,0-.741,2.14,21.434,21.434,0,0,0-.22,3.382,22.338,22.338,0,0,0,.2,3.281,6.429,6.429,0,0,0,.64,2.121,3.175,3.175,0,0,0,1.58,1.521,8.535,8.535,0,0,0,3.181.44q.72,0,1.5-.06t1.541-.18Z" transform="translate(-393.552 -271.995)" fill="#fff"/>
      <path id="Caminho_279" data-name="Caminho 279" d="M534.545,289.794v8.083h0a6.2,6.2,0,0,1-6.2-6.2V272.788h9.164q5.8,0,8.243,1.961t2.441,6.522a8.859,8.859,0,0,1-1.3,5.022,7.337,7.337,0,0,1-3.941,2.821l6.122,8.763h-7.443l-5.2-8.083Zm7.363-8.524a2.493,2.493,0,0,0-.961-2.241,6.616,6.616,0,0,0-3.441-.64h-2.961v6.4h2.961a5.62,5.62,0,0,0,3.441-.78A3.358,3.358,0,0,0,541.908,281.271Z" transform="translate(-416.686 -272.388)" fill="#fff"/>
      <path id="Caminho_280" data-name="Caminho 280" d="M594.706,284.92q0,6.842-2.781,9.9t-9.023,3.062q-6.523,0-9.164-2.881T571.1,284.92q0-6.843,2.781-9.884T582.9,272q6.522,0,9.163,2.881T594.706,284.92Zm-16.566,5.361a2.87,2.87,0,0,0,1.541,1.4,13.176,13.176,0,0,0,6.442,0,2.869,2.869,0,0,0,1.54-1.4,6.812,6.812,0,0,0,.58-2.081,24.32,24.32,0,0,0,.18-3.281,25.175,25.175,0,0,0-.18-3.341,6.854,6.854,0,0,0-.58-2.1,2.77,2.77,0,0,0-1.5-1.46,12.869,12.869,0,0,0-6.522,0,2.771,2.771,0,0,0-1.5,1.46,6.847,6.847,0,0,0-.58,2.1,25.188,25.188,0,0,0-.18,3.341,24.333,24.333,0,0,0,.18,3.281A6.806,6.806,0,0,0,578.14,290.281Z" transform="translate(-437.857 -271.995)" fill="#fff"/>
      <path id="Caminho_281" data-name="Caminho 281" d="M449.58,272.788h-6.442l-9.283,25.089h6.523l1.32-4.2.478-1.545h8.156l.49,1.545h0a6,6,0,0,0,5.724,4.2h2.079Zm-4.062,8.543q.38-1.26.7-2.381.44,1.561.961,3.261t1.04,3.221l.556,1.776H443.7l.557-1.776Q445.137,282.592,445.518,281.331Z" transform="translate(-369.895 -272.388)" fill="#fff"/>
    </g>
    <g id="Grupo_1325" data-name="Grupo 1325" transform="translate(224.025 254.73)">
      <path id="Caminho_282" data-name="Caminho 282" d="M238.886,254.73H224.025v1.262a14.88,14.88,0,0,0,8.878,13.6,14.878,14.878,0,0,0-8.878,13.6v1.262h14.861a14.861,14.861,0,0,0,0-29.722Zm-12.273,2.524h12.273a12.354,12.354,0,0,1,12.273,11.075H238.886A12.354,12.354,0,0,1,226.613,257.254Zm12.273,24.674H226.613a12.354,12.354,0,0,1,12.273-11.075h12.273A12.355,12.355,0,0,1,238.886,281.928Z" transform="translate(-224.025 -254.73)" fill="url(#linear-gradient)"/>
      <path id="Caminho_283" data-name="Caminho 283" d="M225.287,311.39h-1.262V296.53a14.877,14.877,0,0,1,14.861-14.861h1.262V296.53A14.877,14.877,0,0,1,225.287,311.39Zm12.337-27.133a12.355,12.355,0,0,0-11.075,12.273V308.8a12.354,12.354,0,0,0,11.075-12.272Z" transform="translate(-224.025 -268.07)" fill="url(#linear-gradient-2)"/>
    </g>
  </g>
</svg>
